HIERARCHY
ROOT Hips
{
 OFFSET 0.000000 0.000000 0.000000
 CHANNELS 6 Xposition Yposition Zposition Yrotation Xrotation Zrotation
 JOINT Chest
 {
  OFFSET 0.000000 9.585900 0.002600
  CHANNELS 3 Yrotation Xrotation Zrotation
  JOINT Chest2
  {
   OFFSET 0.000000 9.601200 -0.005300
   CHANNELS 3 Yrotation Xrotation Zrotation
   JOINT Chest3
   {
    OFFSET 0.000000 9.561800 0.000000
    CHANNELS 3 Yrotation Xrotation Zrotation
    JOINT Chest4
    {
     OFFSET 0.000000 9.552100 0.000000
     CHANNELS 3 Yrotation Xrotation Zrotation
     JOINT Neck
     {
      OFFSET 0.000000 14.453000 0.000000
      CHANNELS 3 Yrotation Xrotation Zrotation
      JOINT Head
      {
       OFFSET 0.000000 8.936500 -0.011300
       CHANNELS 3 Yrotation Xrotation Zrotation
       End Site
       {
        OFFSET 0.000000 17.073600 -0.006000
       }
      }
     }
     JOINT RightCollar
     {
      OFFSET -2.921100 9.558500 0.000000
      CHANNELS 3 Yrotation Xrotation Zrotation
      JOINT RightShoulder
      {
       OFFSET -13.519700 0.000000 0.000000
       CHANNELS 3 Yrotation Xrotation Zrotation
       JOINT RightElbow
       {
        OFFSET 0.000000 -29.696600 0.000000
        CHANNELS 3 Yrotation Xrotation Zrotation
        JOINT RightWrist
        {
         OFFSET 0.000000 -24.004700 0.000000
         CHANNELS 3 Yrotation Xrotation Zrotation
         End Site
         {
          OFFSET 0.000000 -17.728500 0.000000
         }
        }
       }
      }
     }
     JOINT LeftCollar
     {
      OFFSET 2.921100 9.558500 0.000000
      CHANNELS 3 Yrotation Xrotation Zrotation
      JOINT LeftShoulder
      {
       OFFSET 13.519700 0.000000 0.000000
       CHANNELS 3 Yrotation Xrotation Zrotation
       JOINT LeftElbow
       {
        OFFSET 0.000000 -29.696600 0.000000
        CHANNELS 3 Yrotation Xrotation Zrotation
        JOINT LeftWrist
        {
         OFFSET 0.000000 -24.004700 0.000000
         CHANNELS 3 Yrotation Xrotation Zrotation
         End Site
         {
          OFFSET 0.000000 -17.728500 0.000000
         }
        }
       }
      }
     }
    }
   }
  }
 }
 JOINT RightHip
 {
  OFFSET -7.771700 -0.012900 -0.001300
  CHANNELS 3 Yrotation Xrotation Zrotation
  JOINT RightKnee
  {
   OFFSET 0.000000 -40.869800 0.001200
   CHANNELS 3 Yrotation Xrotation Zrotation
   JOINT RightAnkle
   {
    OFFSET 0.000000 -39.717900 0.002100
    CHANNELS 3 Yrotation Xrotation Zrotation
    JOINT RightToe
    {
     OFFSET 0.000000 -4.965400 11.033500
     CHANNELS 3 Yrotation Xrotation Zrotation
     End Site
     {
      OFFSET 0.000000 -1.423100 5.872300
     }
    }
   }
  }
 }
 JOINT LeftHip
 {
  OFFSET 7.771700 -0.012900 -0.001300
  CHANNELS 3 Yrotation Xrotation Zrotation
  JOINT LeftKnee
  {
   OFFSET 0.000000 -40.869800 0.001200
   CHANNELS 3 Yrotation Xrotation Zrotation
   JOINT LeftAnkle
   {
    OFFSET 0.000000 -39.717900 0.002100
    CHANNELS 3 Yrotation Xrotation Zrotation
    JOINT LeftToe
    {
     OFFSET 0.000000 -4.965400 11.033500
     CHANNELS 3 Yrotation Xrotation Zrotation
     End Site
     {
      OFFSET 0.000000 -1.423100 5.872300
     }
    }
   }
  }
 }
}
MOTION
Frames: 12
Frame Time: 0.008333
0.000000 85.388000 0.000000 0.000000 -5.767877 0.000000 0.000000 11.653817 0.000000 0.000000 -5.885947 0.000000 0.000000 -0.000000 0.000000 0.000000 -0.000000 0.000000 0.000000 12.528835 0.000000 0.000000 0.711642 0.000000 0.000000 -0.000000 0.000000 0.000000 0.000000 -90.000000 0.000000 -2.309062 0.000000 0.000000 2.309062 0.000000 0.000000 -0.000000 0.000000 0.000000 -0.000000 90.000000 0.000000 -2.309062 0.000000 0.000000 2.309062 0.000000 0.000000 8.520406 0.000000 0.000000 1.905762 0.000000 -0.000000 -4.658285 0.000000 0.000000 -0.000000 0.000000 0.000000 8.520406 0.000000 0.000000 1.905762 0.000000 -0.000000 -4.658285 0.000000 0.000000 -0.000000 0.000000
-48.425966 46.437760 10.066025 175.290480 -31.811702 -2.486756 -0.274140 18.047232 1.431447 -0.053326 2.017803 0.193515 -0.083580 3.330499 0.327011 -0.241901 15.777691 1.495387 -0.485357 15.799500 -0.741151 -0.685886 -6.461604 -1.183502 0.237673 0.759021 -1.453545 5.427188 -5.750926 -16.278213 -67.626188 -70.662327 115.860117 0.826422 1.451544 -31.538891 -0.771832 -0.540671 1.717968 -4.047952 -1.096675 13.344761 67.517104 -66.090304 -106.864297 -0.889373 14.733838 11.899944 -5.041980 -55.844656 -6.398732 -165.814308 82.465546 -156.465148 -8.024359 -10.831433 -7.286048 -0.027501 -0.186468 -0.020572 1.489341 -57.386321 10.976313 -112.343826 81.433336 -116.267748 5.308876 -6.373321 5.269292 0.125936 0.236334 0.078978
-48.429021 46.438557 10.068564 175.309223 -31.810348 -2.484382 -0.292625 18.035258 1.428001 -0.053657 2.014829 0.193672 -0.085376 3.339933 0.320200 -0.241365 15.742914 1.508834 -0.590926 15.774213 -0.708985 -0.845248 -6.488821 -1.113680 0.264708 0.805211 -1.452793 5.445536 -5.778158 -16.300520 -67.593001 -70.668589 115.801694 0.839139 1.441990 -31.510378 -0.731194 -0.506186 1.685560 -4.059800 -1.102094 13.351634 67.482401 -66.098756 -106.842131 -0.881893 14.731635 11.933409 -4.963135 -55.848324 -6.450874 -165.875568 82.466384 -156.522661 -8.047996 -10.819257 -7.230361 -0.043040 -0.186864 -0.034993 1.515356 -57.385816 10.948948 -112.246429 81.432242 -116.169406 5.285761 -6.360790 5.274758 0.124767 0.236162 0.081485
-48.427886 46.440397 10.071052 175.314183 -31.815797 -2.500694 -0.276822 18.007525 1.470199 -0.055720 2.008349 0.193865 -0.097002 3.357826 0.309173 -0.246668 15.718661 1.512066 -0.708731 15.761191 -0.679577 -1.074552 -6.527366 -1.009936 0.271654 0.852712 -1.462193 5.531098 -5.844698 -16.317426 -67.493085 -70.705674 115.643471 0.807642 1.429474 -31.489915 -0.694414 -0.470075 1.653474 -4.070170 -1.106052 13.353724 67.432719 -66.112194 -106.802777 -0.872735 14.732937 11.974289 -4.846811 -55.836065 -6.481142 -165.765538 82.467075 -156.382906 -8.098832 -10.812614 -7.177523 -0.037077 -0.179823 -0.030617 1.512414 -57.381353 10.967053 -112.196489 81.426164 -116.111312 5.273584 -6.357408 5.273708 0.128403 0.238344 0.076986
-48.430249 46.442076 10.074030 175.327169 -31.816428 -2.501934 -0.282549 17.993460 1.473750 -0.052804 2.000188 0.195721 -0.090316 3.323541 0.320340 -0.268428 15.755062 1.497457 -0.853306 15.720870 -0.637292 -1.363578 -6.561727 -0.884632 0.308064 0.880511 -1.443277 5.517173 -5.868815 -16.344654 -67.478874 -70.741516 115.622412 0.810066 1.433876 -31.448759 -0.621179 -0.473817 1.605316 -4.113804 -1.098181 13.378031 67.402091 -66.132570 -106.703700 -0.875721 14.748041 11.940628 -4.782195 -55.833037 -6.504626 -165.746945 82.472415 -156.367671 -8.127732 -10.810180 -7.136514 -0.034507 -0.168033 -0.024153 1.527543 -57.377577 10.955260 -112.097049 81.428505 -116.016261 5.265217 -6.347899 5.278565 0.127639 0.239208 0.084664
-48.435482 46.443223 10.077965 175.363336 -31.807226 -2.500730 -0.304221 17.966811 1.465974 -0.059490 2.001625 0.192934 -0.091753 3.318372 0.320240 -0.276967 15.754855 1.496373 -1.027900 15.684522 -0.592362 -1.713328 -6.589995 -0.739643 0.337424 0.911657 -1.424959 5.541432 -5.934865 -16.377392 -67.355086 -70.745739 115.461925 0.812417 1.444463 -31.414421 -0.568481 -0.475290 1.566363 -4.132452 -1.095354 13.393576 67.343909 -66.146810 -106.622614 -0.880199 14.757828 11.916012 -4.735302 -55.841642 -6.543909 -165.704474 82.473258 -156.338067 -8.149678 -10.809167 -7.094986 -0.028680 -0.159410 -0.019868 1.541182 -57.382285 10.914723 -111.954756 81.441419 -115.878486 5.253913 -6.322833 5.278039 0.129282 0.235525 0.089556
-48.439938 46.445359 10.080700 175.392634 -31.805368 -2.502906 -0.305322 17.944780 1.472608 -0.083655 2.016825 0.182869 -0.074650 3.297531 0.327000 -0.296081 15.737506 1.495218 -1.231632 15.676856 -0.548990 -2.121321 -6.611354 -0.577243 0.378466 0.977043 -1.397613 5.550052 -6.018870 -16.425212 -67.197998 -70.719805 115.265217 0.813656 1.449053 -31.402152 -0.531278 -0.450203 1.532449 -4.130991 -1.100129 13.402663 67.286260 -66.158556 -106.543654 -0.886676 14.770755 11.887053 -4.725193 -55.842116 -6.566365 -165.685788 82.474524 -156.330856 -8.149235 -10.805959 -7.077463 -0.023621 -0.157919 -0.016714 1.550173 -57.382421 10.881199 -111.877065 81.447502 -115.798947 5.258892 -6.306626 5.262855 0.133435 0.231661 0.093333
-48.444570 46.448396 10.081872 175.419871 -31.810876 -2.506161 -0.317395 17.943381 1.470764 -0.075698 2.001847 0.187876 -0.064825 3.292552 0.327574 -0.320946 15.723303 1.491460 -1.461702 15.679368 -0.502889 -2.579871 -6.623123 -0.399366 0.398903 1.038178 -1.374050 5.559972 -6.091835 -16.471749 -67.106587 -70.720796 115.149246 0.854641 1.514842 -31.285668 -0.500214 -0.422965 1.499507 -4.120259 -1.108448 13.411996 67.240978 -66.169452 -106.482300 -0.879235 14.792358 11.964605 -4.658142 -55.833103 -6.614919 -165.554367 82.468751 -156.189852 -8.156064 -10.803991 -7.083122 -0.015238 -0.155717 0.019857 1.560788 -57.373395 10.844830 -111.834573 81.454564 -115.750190 5.262348 -6.302280 5.255030 0.133636 0.233379 0.096817
-48.452445 46.450498 10.083588 175.470095 -31.804457 -2.507230 -0.351650 17.932603 1.454726 -0.028582 1.984846 0.199256 -0.106917 3.303038 0.317592 -0.323275 15.706171 1.493574 -1.721077 15.683655 -0.454690 -3.078738 -6.617618 -0.207853 0.404282 1.088785 -1.358998 5.553233 -6.140287 -16.499924 -67.119196 -70.747871 115.149124 0.872617 1.569810 -31.180576 -0.499834 -0.400260 1.483081 -4.113070 -1.113474 13.416706 67.263930 -66.170181 -106.462372 -0.876226 14.811076 11.997269 -4.600630 -55.839549 -6.673282 -165.385324 82.456561 -156.030445 -8.169451 -10.801713 -7.066290 -0.017463 -0.154965 0.044706 1.565351 -57.375226 10.786070 -111.747709 81.470412 -115.662011 5.260158 -6.285629 5.247539 0.135780 0.232107 0.104927
-48.465186 46.449453 10.088856 175.559480 -31.762328 -2.506700 -0.410976 17.886688 1.422336 -0.027396 1.985808 0.197780 -0.133421 3.304361 0.314410 -0.300425 15.673779 1.492274 -2.003368 15.711508 -0.395626 -3.609936 -6.587602 -0.003069 0.399838 1.158238 -1.345330 5.568648 -6.247484 -16.545623 -67.240329 -70.810390 115.210378 0.814600 1.648274 -31.045318 -0.474071 -0.372808 1.450427 -4.139174 -1.115673 13.444305 67.303726 -66.168320 -106.458471 -0.876710 14.823194 12.004375 -4.547049 -55.883689 -6.766182 -165.199183 82.441500 -155.858254 -8.190086 -10.792656 -7.041309 -0.014958 -0.162316 0.064253 1.566195 -57.412479 10.689864 -111.554262 81.486697 -115.467186 5.220156 -6.266930 5.227598 0.180712 0.249633 0.121642
-48.478733 46.452934 10.085496 175.634103 -31.774222 -2.494668 -0.453446 17.898148 1.385089 -0.045532 1.986364 0.194961 -0.118791 3.295128 0.315798 -0.322510 15.673445 1.490070 -2.276450 15.734892 -0.336820 -4.167766 -6.528866 0.217385 0.415831 1.217859 -1.348574 5.580933 -6.372934 -16.588798 -67.424328 -70.881690 115.311209 0.785540 1.744809 -30.855510 -0.427233 -0.365507 1.413920 -4.134558 -1.132575 13.454186 67.308018 -66.177019 -106.446600 -0.880421 14.825118 12.007123 -4.468374 -55.879196 -6.850836 -164.791078 82.397518 -155.513703 -8.150995 -10.792202 -6.956472 -0.065074 -0.162737 0.042435 1.594550 -57.392171 10.575231 -111.475738 81.501981 -115.384034 5.210070 -6.251648 5.219071 0.195631 0.246534 0.117458
-48.489566 46.453829 10.085409 175.710119 -31.758635 -2.505705 -0.467207 17.889764 1.381487 -0.085987 1.980252 0.189575 -0.081966 3.290143 0.318789 -0.351768 15.662742 1.488620 -2.569618 15.786371 -0.269041 -4.748842 -6.437789 0.456098 0.404528 1.260743 -1.348075 5.594938 -6.463219 -16.627042 -67.729880 -70.995717 115.511328 0.793739 1.862085 -30.606750 -0.407043 -0.350359 1.389185 -4.123603 -1.154748 13.453462 67.327502 -66.184868 -106.445784 -0.880824 14.817901 12.012448 -4.342625 -55.901494 -6.959333 -164.389079 82.351951 -155.105850 -8.157873 -10.783188 -6.915266 -0.053200 -0.169380 0.061906 1.582333 -57.403445 10.489033 -111.437409 81.529529 -115.341523 5.251620 -6.226843 5.229044 0.158188 0.232577 0.097324
